{"title":"How I Met Your Mother Season 1 DVDRip XviD 16:9 - DiGrX","uid":9059823,"size":4357384398,"categoryP":"video","categoryS":"tv_shows","magnet":"?xt=urn:btih:8ddea0b22f960fa71cd09c5b9bc6c364d47c78e6&amp;dn=How+I+Met+Your+Mother+Season+1+DVDRip+XviD+16%3A9+-+DiGrX&amp;tr=udp%3A%2F%2Ftracker.openbittorrent.com%3A80&amp;tr=udp%3A%2F%2Fopen.demonii.com%3A1337&amp;tr=udp%3A%2F%2Ftracker.coppersurfer.tk%3A6969&amp;tr=udp%3A%2F%2Fexodus.desync.com%3A6969","seeders":15,"leechers":7,"uploader":"dimigeor","files":23,"time":1382024256,"description":"How I Met Your Mother Season 1 DVDRip XviD - DiGrX\n\nAll episodes in XviD from DVDRip.\nThe Aspect ratio is stretched to 16:9 without bandwidth waste!\n\nCodec ID, Format: XVID, MPEG-4\nAspect ratio, Dimension: 16:9, 624x352\nAudio: MP3, 2 Channels\n\n\n-----------------------------------------------------------------------------------\n\n\nEpisode 1 example:\n\nGeneral\nComplete name                            : 1x01 How I Met Your Mother - Pilot DVDRip.avi\nFormat                                   : AVI\nFormat/Info                              : Audio Video Interleave\nFile size                                : 184 MiB\nDuration                                 : 22mn 3s\nOverall bit rate                         : 1 163 Kbps\nWriting application                      : MEncoder r33883\nWriting library                          : MPlayer\n\nVideo\nID                                       : 0\nFormat                                   : MPEG-4 Visual\nFormat profile                           : Simple@L3\nFormat settings, BVOP                    : No\nFormat settings, QPel                    : No\nFormat settings, GMC                     : No warppoints\nFormat settings, Matrix                  : Default (H.263)\nCodec ID                                 : XVID\nCodec ID/Hint                            : XviD\nDuration                                 : 22mn 3s\nBit rate                                 : 1 032 Kbps\nWidth                                    : 624 pixels\nHeight                                   : 352 pixels\nDisplay aspect ratio                     : 16:9\nFrame rate                               : 23.976 fps\nColor space                              : YUV\nChroma subsampling                       : 4:2:0\nBit depth                                : 8 bits\nScan type                                : Progressive\nCompression mode                         : Lossy\nBits/(Pixel*Frame)                       : 0.196\nStream size                              : 163 MiB (89%)\nWriting library                          : XviD 63\n\nAudio\nID                                       : 1\nFormat                                   : MPEG Audio\nFormat version                           : Version 1\nFormat profile                           : Layer 3\nMode                                     : Joint stereo\nMode extension                           : MS Stereo\nCodec ID                                 : 55\nCodec ID/Hint                            : MP3\nDuration                                 : 22mn 3s\nBit rate mode                            : Constant\nBit rate                                 : 32.0 Kbps\nChannel(s)                               : 2 channels\nSampling rate                            : 48.0 KHz\nCompression mode                         : Lossy\nStream size                              : 18.7 MiB (10%)\nAlignment                                : Aligned on interleaves\nInterleave, duration                     : 24 ms (0.58 video frame)\nInterleave, preload duration             : 135 ms\nWriting library                          : LAME3.98.4\n\n\n-----------------------------------------------------------------------------------\n","torrent":{"xt":"urn:btih:8ddea0b22f960fa71cd09c5b9bc6c364d47c78e6","amp;dn":"How+I+Met+Your+Mother+Season+1+DVDRip+XviD+16%3A9+-+DiGrX","amp;tr":["udp%3A%2F%2Ftracker.openbittorrent.com%3A80","udp%3A%2F%2Fopen.demonii.com%3A1337","udp%3A%2F%2Ftracker.coppersurfer.tk%3A6969","udp%3A%2F%2Fexodus.desync.com%3A6969"],"infoHash":"8ddea0b22f960fa71cd09c5b9bc6c364d47c78e6","infoHashBuffer":{"type":"Buffer","data":[141,222,160,178,47,150,15,167,28,208,156,91,155,198,195,100,212,124,120,230]},"announce":[],"urlList":[]}}